<?xml version="1.0" encoding="UTF-8"?><svg id="Capa_2" xmlns="http://www.w3.org/2000/svg" xmlns:xlink="http://www.w3.org/1999/xlink" viewBox="0 0 227.58 173"><defs><style>.cls-1{fill:url(#Degradado_sin_nombre_6-2);}.cls-2{fill:url(#Degradado_sin_nombre_6);}.cls-3{fill:url(#Degradado_sin_nombre_6-3);}.cls-4{fill:url(#Degradado_sin_nombre_6-4);}.cls-5{fill:url(#Degradado_sin_nombre_6-5);}</style><linearGradient id="Degradado_sin_nombre_6" x1="0" y1="100.83" x2="163.67" y2="100.83" gradientUnits="userSpaceOnUse"><stop offset="0" stop-color="#ee16bf"/><stop offset=".95" stop-color="#fb7279"/></linearGradient><linearGradient id="Degradado_sin_nombre_6-2" x1="62.28" y1="139.27" x2="130" y2="139.27" xlink:href="#Degradado_sin_nombre_6"/><linearGradient id="Degradado_sin_nombre_6-3" x1="75.91" y1="9.94" x2="186.89" y2="9.94" xlink:href="#Degradado_sin_nombre_6"/><linearGradient id="Degradado_sin_nombre_6-4" x1="150.35" y1="139.26" x2="174.86" y2="139.26" xlink:href="#Degradado_sin_nombre_6"/><linearGradient id="Degradado_sin_nombre_6-5" x1="150.24" y1="98.48" x2="227.58" y2="98.48" xlink:href="#Degradado_sin_nombre_6"/></defs><g id="Capa_1-2"><g><path class="cls-2" d="M.05,172.01c5.7-5.62,11.42-11.21,17.08-16.86,19.3-19.27,38.58-38.57,57.88-57.84,.43-.43,.96-.78,1.5-1.21-12.96-12.94-25.71-25.67-38.57-38.51,6.27-6.26,12.46-12.46,18.67-18.65,3.43-3.42,6.9-6.81,10.35-10.22,4.85-.02,9.71-.04,14.56-.05,4.77,0,9.55,0,14.02,0-9.37,9.36-18.86,18.83-28.53,28.5,6.74,6.69,12.95,12.87,19.21,19,.42,.41,1.23,.57,1.86,.57,10.09,.03,20.19,.04,30.28,0,.67,0,1.51-.32,1.99-.78,2.95-2.81,5.82-5.71,8.8-8.66-2.94-2.91-5.74-5.78-8.67-8.51-.63-.59-1.73-.92-2.62-.93-5.69-.08-11.38-.04-17.44-.04,.56-.67,.89-1.13,1.28-1.52,5.55-5.56,11.09-11.14,16.7-16.64,.68-.66,1.8-1.17,2.74-1.2,3.93-.13,7.86-.11,11.79-.01,.81,.02,1.82,.38,2.39,.94,9.31,9.22,18.56,18.49,28.36,28.29-.67,.41-1.4,.69-1.92,1.2-7.87,7.82-15.71,15.67-23.55,23.53-.69,.69-1.14,1.67-1.91,2.24-.91,.67-2.03,1.48-3.07,1.49-8.55,.12-17.11,.03-25.66,.12-1.01,.01-2.29,.45-2.99,1.15-24.89,24.8-49.73,49.65-74.57,74.5-.32,.32-.56,.71-.84,1.06-9.26,0-18.51,0-27.77-.01-.59,0-1.65,.49-1.37-.91Z"/><path class="cls-1" d="M105.49,172.93v-23.97H62.28c.46-.73,.65-1.2,.97-1.52,5.65-5.68,11.3-11.36,17.02-16.96,.61-.6,1.72-.96,2.6-.97,6.7-.08,13.4-.04,20.11-.04h2.43v-23.86h24.6v67.33h-24.51Z"/><path class="cls-3" d="M186.89,0c-.39,.62-.68,1.34-1.18,1.85-5.58,5.63-11.18,11.26-16.85,16.81-.67,.66-1.82,1.18-2.74,1.18-29.42,.06-58.84,.05-88.26,.05-.44,0-.88-.04-1.94-.1C82.61,12.95,88.96,6.48,95.32,0c30.52,0,61.05,0,91.57,0Z"/><path class="cls-4" d="M150.35,172.93V105.59h24.51v67.34h-24.51Z"/><path class="cls-5" d="M227.58,105.89c-4.39,4.31-8.73,8.67-13.21,12.88-.83,.78-2.21,1.37-3.34,1.39-8.25,.12-16.49,.06-24.74,.06h-1.99c4.79-4.65,9.49-9.21,14.48-14.05-3.71-3.61-6.68-6.57-9.76-9.42-.52-.47-1.54-.55-2.33-.55-11.25-.03-22.51-.02-33.76-.02-.74,0-1.49,0-2.69,0,1.03-1.07,1.73-1.84,2.46-2.57,5.17-5.18,10.32-10.39,15.58-15.48,.77-.74,2.08-1.29,3.15-1.3,8.48-.1,16.96-.11,25.43,0,1.06,.01,2.37,.58,3.13,1.33,8.67,8.55,17.26,17.18,25.88,25.78,.54,.53,1.14,1,1.72,1.49v.46Z"/></g></g></svg>